<svg height="574" width="720" xmlns="http://www.w3.org/2000/svg">
<rect height="574" fill="#555" width="720"></rect>
<text fill="#7f7" font-family="Courier New" font-size="12" xml:space="preserve">
<tspan x="10" y="26">3 megabytes installed</tspan>
<tspan x="10" y="42"></tspan>
<tspan x="10" y="58">node_modules</tspan>
<tspan x="10" y="74">└─┬ unzip2@0.2.5 </tspan>
<tspan x="10" y="90">  ├─┬ binary@0.3.0 </tspan>
<tspan x="10" y="106">  │ ├── buffers@0.1.1 </tspan>
<tspan x="10" y="122">  │ └─┬ chainsaw@0.1.0 </tspan>
<tspan x="10" y="138">  │   └── traverse@0.3.9 </tspan>
<tspan x="10" y="154">  ├─┬ fstream@0.1.31 </tspan>
<tspan x="10" y="170">  │ ├─┬ graceful-fs@3.0.11 </tspan>
<tspan x="10" y="186">  │ │ └── natives@1.1.0 </tspan>
<tspan x="10" y="202">  │ ├── inherits@2.0.3 </tspan>
<tspan x="10" y="218">  │ ├─┬ mkdirp@0.5.1 </tspan>
<tspan x="10" y="234">  │ │ └── minimist@0.0.8 </tspan>
<tspan x="10" y="250">  │ └─┬ rimraf@2.6.1 </tspan>
<tspan x="10" y="266">  │   └─┬ glob@7.1.1 </tspan>
<tspan x="10" y="282">  │     ├── fs.realpath@1.0.0 </tspan>
<tspan x="10" y="298">  │     ├─┬ inflight@1.0.6 </tspan>
<tspan x="10" y="314">  │     │ └── wrappy@1.0.2 </tspan>
<tspan x="10" y="330">  │     ├─┬ minimatch@3.0.3 </tspan>
<tspan x="10" y="346">  │     │ └─┬ brace-expansion@1.1.7 </tspan>
<tspan x="10" y="362">  │     │   ├── balanced-match@0.4.2 </tspan>
<tspan x="10" y="378">  │     │   └── concat-map@0.0.1 </tspan>
<tspan x="10" y="394">  │     ├── once@1.4.0 </tspan>
<tspan x="10" y="410">  │     └── path-is-absolute@1.0.1 </tspan>
<tspan x="10" y="426">  ├── match-stream@0.0.2 </tspan>
<tspan x="10" y="442">  ├─┬ pullstream@0.4.1 </tspan>
<tspan x="10" y="458">  │ ├── over@0.0.5 </tspan>
<tspan x="10" y="474">  │ └── slice-stream@1.0.0 </tspan>
<tspan x="10" y="490">  ├─┬ readable-stream@1.0.34 </tspan>
<tspan x="10" y="506">  │ ├── core-util-is@1.0.2 </tspan>
<tspan x="10" y="522">  │ ├── isarray@0.0.1 </tspan>
<tspan x="10" y="538">  │ └── string_decoder@0.10.31 </tspan>
<tspan x="10" y="554">  └── setimmediate@1.0.5</tspan>
</text>
</svg>
